<svg width="1000" height="1000" viewBox="0 0 1000 1000" fill="none" xmlns="http://www.w3.org/2000/svg">
<circle opacity="0.5" cx="500" cy="500" r="500" fill="#FC6664"/>
<path d="M288.3 447.3L259.05 552H234.3L214.65 477.45L194.1 552L169.5 552.15L141.3 447.3H163.8L182.25 528.6L203.55 447.3H226.95L247.05 528.15L265.65 447.3H288.3ZM379.262 508.65C379.262 511.65 379.062 514.35 378.662 516.75H317.912C318.412 522.75 320.512 527.45 324.212 530.85C327.912 534.25 332.462 535.95 337.862 535.95C345.662 535.95 351.212 532.6 354.512 525.9H377.162C374.762 533.9 370.162 540.5 363.362 545.7C356.562 550.8 348.212 553.35 338.312 553.35C330.312 553.35 323.112 551.6 316.712 548.1C310.412 544.5 305.462 539.45 301.862 532.95C298.362 526.45 296.612 518.95 296.612 510.45C296.612 501.85 298.362 494.3 301.862 487.8C305.362 481.3 310.262 476.3 316.562 472.8C322.862 469.3 330.112 467.55 338.312 467.55C346.212 467.55 353.262 469.25 359.462 472.65C365.762 476.05 370.612 480.9 374.012 487.2C377.512 493.4 379.262 500.55 379.262 508.65ZM357.512 502.65C357.412 497.25 355.462 492.95 351.662 489.75C347.862 486.45 343.212 484.8 337.712 484.8C332.512 484.8 328.112 486.4 324.512 489.6C321.012 492.7 318.862 497.05 318.062 502.65H357.512ZM415.59 441V552H394.59V441H415.59ZM430.938 510.45C430.938 501.85 432.688 494.35 436.188 487.95C439.688 481.45 444.538 476.45 450.738 472.95C456.938 469.35 464.038 467.55 472.038 467.55C482.338 467.55 490.838 470.15 497.538 475.35C504.338 480.45 508.888 487.65 511.188 496.95H488.538C487.338 493.35 485.288 490.55 482.388 488.55C479.588 486.45 476.088 485.4 471.888 485.4C465.888 485.4 461.138 487.6 457.638 492C454.138 496.3 452.388 502.45 452.388 510.45C452.388 518.35 454.138 524.5 457.638 528.9C461.138 533.2 465.888 535.35 471.888 535.35C480.388 535.35 485.938 531.55 488.538 523.95H511.188C508.888 532.95 504.338 540.1 497.538 545.4C490.738 550.7 482.238 553.35 472.038 553.35C464.038 553.35 456.938 551.6 450.738 548.1C444.538 544.5 439.688 539.5 436.188 533.1C432.688 526.6 430.938 519.05 430.938 510.45ZM563.473 553.35C555.473 553.35 548.273 551.6 541.873 548.1C535.473 544.5 530.423 539.45 526.723 532.95C523.123 526.45 521.323 518.95 521.323 510.45C521.323 501.95 523.173 494.45 526.873 487.95C530.673 481.45 535.823 476.45 542.323 472.95C548.823 469.35 556.073 467.55 564.073 467.55C572.073 467.55 579.323 469.35 585.823 472.95C592.323 476.45 597.423 481.45 601.123 487.95C604.923 494.45 606.823 501.95 606.823 510.45C606.823 518.95 604.873 526.45 600.973 532.95C597.173 539.45 591.973 544.5 585.373 548.1C578.873 551.6 571.573 553.35 563.473 553.35ZM563.473 535.05C567.273 535.05 570.823 534.15 574.123 532.35C577.523 530.45 580.223 527.65 582.223 523.95C584.223 520.25 585.223 515.75 585.223 510.45C585.223 502.55 583.123 496.5 578.923 492.3C574.823 488 569.773 485.85 563.773 485.85C557.773 485.85 552.723 488 548.623 492.3C544.623 496.5 542.623 502.55 542.623 510.45C542.623 518.35 544.573 524.45 548.473 528.75C552.473 532.95 557.473 535.05 563.473 535.05ZM725.427 467.7C735.627 467.7 743.827 470.85 750.027 477.15C756.327 483.35 759.477 492.05 759.477 503.25V552H738.477V506.1C738.477 499.6 736.827 494.65 733.527 491.25C730.227 487.75 725.727 486 720.027 486C714.327 486 709.777 487.75 706.377 491.25C703.077 494.65 701.427 499.6 701.427 506.1V552H680.427V506.1C680.427 499.6 678.777 494.65 675.477 491.25C672.177 487.75 667.677 486 661.977 486C656.177 486 651.577 487.75 648.177 491.25C644.877 494.65 643.227 499.6 643.227 506.1V552H622.227V468.9H643.227V478.95C645.927 475.45 649.377 472.7 653.577 470.7C657.877 468.7 662.577 467.7 667.677 467.7C674.177 467.7 679.977 469.1 685.077 471.9C690.177 474.6 694.127 478.5 696.927 483.6C699.627 478.8 703.527 474.95 708.627 472.05C713.827 469.15 719.427 467.7 725.427 467.7ZM856.655 508.65C856.655 511.65 856.455 514.35 856.055 516.75H795.305C795.805 522.75 797.905 527.45 801.605 530.85C805.305 534.25 809.855 535.95 815.255 535.95C823.055 535.95 828.605 532.6 831.905 525.9H854.555C852.155 533.9 847.555 540.5 840.755 545.7C833.955 550.8 825.605 553.35 815.705 553.35C807.705 553.35 800.505 551.6 794.105 548.1C787.805 544.5 782.855 539.45 779.255 532.95C775.755 526.45 774.005 518.95 774.005 510.45C774.005 501.85 775.755 494.3 779.255 487.8C782.755 481.3 787.655 476.3 793.955 472.8C800.255 469.3 807.505 467.55 815.705 467.55C823.605 467.55 830.655 469.25 836.855 472.65C843.155 476.05 848.005 480.9 851.405 487.2C854.905 493.4 856.655 500.55 856.655 508.65ZM834.905 502.65C834.805 497.25 832.855 492.95 829.055 489.75C825.255 486.45 820.605 484.8 815.105 484.8C809.905 484.8 805.505 486.4 801.905 489.6C798.405 492.7 796.255 497.05 795.455 502.65H834.905Z" fill="white"/>
</svg>
